#!OML:ASF H:\Terrain\Patient Classification 1\Takeo\Monday\TakeoMonday.ASF
:FULLY-SPECIFIED
:DEGREES
516
root 18.2643 17.3002 -0.355525 -7.78125 -52.6065 2.79967
lowerback 5.92623 2.41182 2.26091
upperback 3.9714 3.23512 3.63886
thorax 0.689684 1.5866 2.30811
lowerneck -11.8964 6.17211 2.12007
upperneck 3.8319 8.05694 -2.2093
head 3.55096 3.92246 -0.548628
rclavicle -7.09661e-014 -4.13472e-014
rhumerus 34.0768 -20.9943 -73.3839
rradius 41.357
rwrist -33.2359
rhand -53.0009 23.5192
rfingers 7.12502
rthumb -25.4666 -4.79933
lclavicle -7.09661e-014 -4.13472e-014
lhumerus 9.26566 -11.5441 56.402
lradius 84.3633
lwrist 25.7879
lhand -25.1399 20.9593
lfingers 7.12502
lthumb 1.37645 50.9346
rfemur 3.07404 -10.8687 6.92589
rtibia 36.111
rfoot -20.129 -29.0147
rtoes -6.17646
lfemur -15.1969 5.947 -19.6634
ltibia 39.427
lfoot -13.5218 8.21323
ltoes -5.57008
517
root 18.2625 17.3045 -0.323416 -7.65808 -51.6335 2.38258
lowerback 5.82054 2.50938 2.48883
upperback 4.09463 3.36399 3.65117
thorax 0.885615 1.6556 2.19625
lowerneck -12.0244 5.86798 2.05327
upperneck 3.89321 7.64676 -2.03223
head 3.57633 3.72512 -0.504083
rclavicle 8.01102e-014 2.22639e-014
rhumerus 34.9491 -20.3029 -74.4971
rradius 41.2226
rwrist -32.8857
rhand -53.0118 22.7753
rfingers 7.12502
rthumb -25.477 -5.54172
lclavicle 8.01102e-014 2.22639e-014
lhumerus 10.4954 -11.9192 55.8686
lradius 84.2182
lwrist 25.5121
lhand -25.1139 21.2423
lfingers 7.12502
lthumb 1.40157 51.2174
rfemur 3.74286 -10.7837 7.10509
rtibia 35.9946
rfoot -20.1466 -29.3731
rtoes -5.8976
lfemur -15.0094 5.07746 -19.6411
ltibia 39.4393
lfoot -13.4933 8.11058
ltoes -3.88087
518
root 18.2607 17.3098 -0.291794 -7.06615 -50.8568 1.56321
lowerback 5.58044 2.61487 2.91059
upperback 4.15934 3.50419 3.82209
thorax 1.0993 1.73207 2.14543
lowerneck -12.1714 5.47045 1.48237
upperneck 4.04693 7.17091 -1.5817
head 3.60228 3.49884 -0.28565
rclavicle 2.8625e-014 -2.54444e-014
rhumerus 35.6108 -19.1713 -74.9997
rradius 41.1364
rwrist -33.126
rhand -52.4587 22.7958
rfingers 7.12502
rthumb -24.9471 -5.5958
lclavicle 2.8625e-014 -2.54444e-014
lhumerus 11.5625 -12.1579 55.3796
lradius 84.0845
lwrist 25.5041
lhand -25.0462 21.1972
lfingers 7.12502
lthumb 1.46695 51.1719
rfemur 4.11349 -10.7035 7.67596
rtibia 35.8316
rfoot -19.3565 -30.1638
rtoes -7.58363
lfemur -15.0001 4.83345 -19.272
ltibia 39.3844
lfoot -13.3429 7.63228
ltoes -2.58941
519
root 18.2675 17.3268 -0.255087 -6.82011 -50.1469 1.38568
lowerback 5.40467 2.79657 2.93178
upperback 4.04904 3.74501 3.97237
thorax 1.07073 1.85195 2.28302
lowerneck -12.2458 4.95222 0.551562
upperneck 4.24427 6.57293 -0.867882
head 3.60997 3.21842 0.0719052
rclavicle -2.8625e-014 -5.725e-014
rhumerus 36.0878 -17.9576 -75.067
rradius 40.9462
rwrist -33.5858
rhand -52.32 23.2843
rfingers 7.12502
rthumb -24.8143 -5.12564
lclavicle -2.8625e-014 -5.725e-014
lhumerus 12.4756 -12.4237 55.0353
lradius 83.9464
lwrist 25.6435
lhand -24.8574 21.0339
lfingers 7.12502
lthumb 1.64925 51.0073
rfemur 4.27159 -10.6981 7.78137
rtibia 35.7037
rfoot -19.4276 -30.5735
rtoes -6.66335
lfemur -15.1169 4.47349 -19.3742
ltibia 39.2369
lfoot -13.2843 7.46621
ltoes -2.96135
520
root 18.2752 17.3573 -0.219034 -6.73626 -49.4279 1.43581
lowerback 5.37258 3.05109 2.83494
upperback 3.81158 4.09674 3.98919
thorax 0.828324 2.02718 2.3309
lowerneck -12.3129 4.4507 0.400583
upperneck 4.53516 5.91218 -0.607181
head 3.70758 2.89965 0.144149
rclavicle 1.9461e-013 -2.38542e-014
rhumerus 36.6592 -17.127 -75.4924
rradius 40.532
rwrist -33.6857
rhand -52.7936 23.9231
rfingers 7.12502
rthumb -25.2681 -4.42357
lclavicle 1.9461e-013 -2.38542e-014
lhumerus 13.4608 -12.8491 54.7551
lradius 83.6766
lwrist 25.5269
lhand -24.755 20.939
lfingers 7.12502
lthumb 1.74815 50.9116
rfemur 4.41239 -10.5817 7.75292
rtibia 35.6591
rfoot -19.4277 -30.918
rtoes -5.76507
lfemur -15.1836 3.62332 -19.6541
ltibia 39.0003
lfoot -13.2911 7.63508
ltoes -2.50954
521
root 18.2735 17.3742 -0.18837 -6.58532 -48.619 1.31049
lowerback 5.37339 3.29963 2.92007
upperback 3.55929 4.45097 3.86538
thorax 0.576468 2.20824 2.12957
lowerneck -12.0961 4.01437 0.828897
upperneck 4.59436 5.2712 -0.66903
head 3.69949 2.58936 -0.00106385
rclavicle 1.33186e-014 1.90833e-014
rhumerus 37.0537 -16.5341 -76.1762
rradius 40.2312
rwrist -33.6604
rhand -53.0323 24.4534
rfingers 7.12502
rthumb -25.4967 -3.86078
lclavicle 1.33186e-014 1.90833e-014
lhumerus 14.5638 -13.4588 54.2441
lradius 83.4621
lwrist 25.5516
lhand -24.8659 21.0218
lfingers 7.12502
lthumb 1.64112 50.9953
rfemur 4.62335 -10.4515 7.87915
rtibia 35.6833
rfoot -18.9834 -31.492
rtoes -6.77767
lfemur -15.1162 2.98332 -19.7832
ltibia 38.6852
lfoot -13.0222 7.49974
ltoes -2.22022
522
root 18.2679 17.3824 -0.155409 -6.56004 -47.7588 1.17866
lowerback 5.36226 3.45528 2.98197
upperback 3.46027 4.66925 3.76016
thorax 0.49061 2.32036 1.9735
lowerneck -11.9938 3.5712 0.53588
upperneck 4.55178 4.67189 0.0166451
head 3.63215 2.32026 0.231603
rclavicle -6.50523e-014 -4.77083e-015
rhumerus 37.5724 -15.7356 -77.0122
rradius 40.0488
rwrist -33.7376
rhand -53.1949 24.6775
rfingers 7.12502
rthumb -25.6525 -3.61431
lclavicle -6.50523e-014 -4.77083e-015
lhumerus 15.6105 -13.8465 53.6043
lradius 83.3507
lwrist 25.5757
lhand -24.6425 21.0644
lfingers 7.12502
lthumb 1.85687 51.0361
rfemur 4.97448 -10.4835 7.95048
rtibia 35.7268
rfoot -18.7023 -32.144
rtoes -6.67868
lfemur -14.8523 2.63343 -19.9101
ltibia 38.3645
lfoot -12.65 7.27098
ltoes -2.73944
523
root 18.2708 17.3802 -0.118592 -6.92724 -46.9066 1.50467
lowerback 5.36711 3.56159 2.74066
upperback 3.47087 4.80372 3.69175
thorax 0.482513 2.38626 2.03002
lowerneck -12.1292 3.13951 -0.142159
upperneck 4.59845 4.14101 0.778319
head 3.64021 2.08001 0.569632
rclavicle -5.19822e-014 9.54166e-015
rhumerus 38.4051 -14.5797 -77.7766
rradius 39.7378
rwrist -33.8849
rhand -53.4402 24.9266
rfingers 7.12502
rthumb -25.8874 -3.3311
lclavicle -5.19822e-014 9.54166e-015
lhumerus 16.6136 -13.8906 53.1408
lradius 83.0435
lwrist 25.3845
lhand -24.3211 21.2681
lfingers 7.12502
lthumb 2.16729 51.2369
rfemur 5.40008 -10.4851 7.57964
rtibia 35.7782
rfoot -19.029 -32.3985
rtoes -4.76286
lfemur -14.5668 2.14814 -20.3965
ltibia 38.102
lfoot -12.6595 7.12329
ltoes -3.08691
524
root 18.2742 17.3755 -0.0866259 -7.20992 -46.1445 1.8481
lowerback 5.22818 3.70419 2.52261
upperback 3.53668 4.97789 3.6026
thorax 0.613651 2.47315 2.06324
lowerneck -12.2252 2.83652 -0.332809
upperneck 4.54097 3.75621 0.912492
head 3.63478 1.89226 0.622527
rclavicle 1.56543e-014 -2.8625e-014
rhumerus 39.2993 -13.4509 -78.5003
rradius 39.5743
rwrist -34.0541
rhand -53.2464 24.8369
rfingers 7.12502
rthumb -25.7018 -3.44778
lclavicle 1.56543e-014 -2.8625e-014
lhumerus 17.7442 -13.8206 52.6281
lradius 82.7446
lwrist 25.6929
lhand -24.352 21.537
lfingers 7.12502
lthumb 2.13745 51.5061
rfemur 5.69171 -10.1885 7.27876
rtibia 35.8534
rfoot -19.6985 -32.518
rtoes -3.85937
lfemur -14.4258 1.67099 -20.8688
ltibia 37.8498
lfoot -12.7437 6.75646
ltoes -2.99745
525
root 18.2701 17.387 -0.0527396 -6.96277 -45.4507 1.6287
lowerback 4.85695 3.89565 2.75006
upperback 3.64829 5.21991 3.50744
thorax 0.960409 2.60138 1.86332
lowerneck -12.5329 2.53728 -0.124545
upperneck 4.47232 3.32609 0.874045
head 3.67928 1.68162 0.548206
rclavicle 1.22352e-013 4.13472e-014
rhumerus 40.3602 -12.8009 -79.6808
rradius 39.4135
rwrist -33.9189
rhand -52.6545 24.2777
rfingers 7.12502
rthumb -25.1347 -4.08776
lclavicle 1.22352e-013 4.13472e-014
lhumerus 19.1172 -13.7652 52.0228
lradius 82.5497
lwrist 26.2637
lhand -24.0886 21.1616
lfingers 7.12502
lthumb 2.39183 51.1279
rfemur 5.83137 -9.90119 7.5094
rtibia 35.9386
rfoot -20.4433 -32.8133
rtoes -2.85724
lfemur -14.3919 1.37645 -20.8954
ltibia 37.6031
lfoot -12.5947 6.34921
ltoes -3.32909
526
root 18.2664 17.4011 -0.0145941 -6.65747 -44.6775 1.4319
lowerback 4.68149 4.12876 2.82829
upperback 3.46064 5.53654 3.55192
thorax 0.863637 2.76118 1.85804
lowerneck -12.8667 2.12346 -0.144845
upperneck 4.87639 2.77354 0.912751
head 3.89239 1.41039 0.536324
rclavicle 9.46215e-014 -3.65764e-014
rhumerus 41.2184 -12.3485 -80.8801
rradius 38.834
rwrist -33.34
rhand -52.2847 24.3127
rfingers 7.12502
rthumb -24.7804 -4.10193
lclavicle 9.46215e-014 -3.65764e-014
lhumerus 20.1216 -14.0362 51.9091
lradius 82.3178
lwrist 26.1547
lhand -23.6171 21.0308
lfingers 7.12502
lthumb 2.84719 50.9915
rfemur 5.91723 -10.0069 7.68447
rtibia 35.9963
rfoot -19.6427 -33.5632
rtoes -3.56738
lfemur -14.4247 0.934384 -20.9605
ltibia 37.3783
lfoot -12.4468 6.15453
ltoes -3.84073
527
root 18.2634 17.4084 0.0168587 -6.69171 -43.8772 1.52706
lowerback 4.92539 4.3463 2.55238
upperback 3.10611 5.84955 3.66572
thorax 0.318981 2.91141 2.07338
lowerneck -12.7481 1.65763 -0.872173
upperneck 5.2342 2.22214 1.50729
head 3.98651 1.15244 0.828449
rclavicle -9.36276e-014 -1.11319e-014
rhumerus 41.4748 -11.8836 -82.1356
rradius 39.5651
rwrist -32.3713
rhand -51.9063 23.2849
rfingers 7.12502
rthumb -24.4177 -5.17909
lclavicle -9.36276e-014 -1.11319e-014
lhumerus 20.7105 -14.5026 51.9078
lradius 82.1332
lwrist 25.7085
lhand -23.7343 21.6538
lfingers 7.12502
lthumb 2.73399 51.616
rfemur 6.13182 -10.107 7.61468
rtibia 36.0066
rfoot -17.9117 -34.4329
rtoes -5.81452
lfemur -14.3658 0.485981 -21.2426
ltibia 37.1652
lfoot -12.1166 5.96712
ltoes -3.28261
528
root 18.2577 17.4109 0.0446515 -6.81368 -43.0591 1.57164
lowerback 4.92602 4.46406 2.63836
upperback 3.1435 6.00964 3.49543
thorax 0.381409 2.99508 1.84741
lowerneck -12.7873 1.2342 -1.1813
upperneck 5.07564 1.66624 2.01557
head 3.94087 0.896734 1.01319
rclavicle -1.75154e-013 -1.59028e-014
rhumerus 41.8867 -10.2679 -81.7964
rradius 39.7034
rwrist -33.7375
rhand -51.6549 23.1719
rfingers 7.12502
rthumb -24.1767 -5.32438
lclavicle -1.75154e-013 -1.59028e-014
lhumerus 21.8792 -14.6272 51.0386
lradius 82.0463
lwrist 25.7112
lhand -24.1439 22.2048
lfingers 7.12502
lthumb 2.33841 52.1717
rfemur 6.51716 -9.85756 7.60737
rtibia 35.9908
rfoot -18.2602 -34.6378
rtoes -5.18758
lfemur -14.1815 0.0334422 -21.4492
ltibia 36.9659
lfoot -12.0149 5.65968
ltoes -2.31574
